<?xml version="1.0" encoding="UTF-8"?>
<svg width="784px" height="732px" viewBox="0 0 784 732" version="1.1" xmlns="http://www.w3.org/2000/svg" xmlns:xlink="http://www.w3.org/1999/xlink">
    <!-- Generator: Sketch 51.2 (57519) - http://www.bohemiancoding.com/sketch -->
    <title>Group 2</title>
    <desc>Created with Sketch.</desc>
    <defs></defs>
    <g id="Page-1" stroke="none" stroke-width="1" fill="none" fill-rule="evenodd">
        <g id="Desktop-HD" transform="translate(-589.000000, -682.000000)" fill="#EADEDA" fill-rule="nonzero">
            <g id="Group-2" transform="translate(589.000000, 682.000000)">
                <g id="noun_hanger_103399">
                    <path d="M687.338261,386.361966 C695.986261,391.217966 704.618261,396.097966 713.258261,400.961966 L70.754261,400.961966 C79.402261,396.097966 88.034261,391.217966 96.674261,386.361966 C176.098261,341.681966 255.538261,297.025966 334.986261,252.377966 C353.986261,241.697966 373.002261,231.009966 392.010261,220.329966 C411.018261,231.009966 430.026261,241.697966 449.034261,252.377966 C528.482261,297.025966 607.914261,341.681966 687.338261,386.361966 M750.882261,378.553966 C689.050261,342.321966 625.634261,308.625966 563.290261,273.273966 C538.842261,259.425966 508.610261,246.209966 490.610261,223.769966 C479.650261,210.105966 475.762261,192.937966 465.746261,178.785966 C457.650261,167.329966 446.826261,158.049966 434.810261,150.905966 C422.802261,143.761966 409.250261,140.697966 395.458261,137.769966 L395.458261,103.553966 C395.458261,95.6579659 402.226261,86.5139659 408.018261,81.0899659 C420.026261,69.8499659 425.610261,58.4419659 425.610261,45.1939659 C425.610261,33.0179659 420.442261,21.1219659 411.434261,12.5619659 C402.402261,3.98596591 390.242261,-0.57403409 378.050261,0.05796591 C364.506261,0.76196591 351.666261,7.76996591 343.714261,18.8259659 C342.082261,21.0819659 340.610261,23.3219659 339.186261,25.4739659 C336.370261,29.7299659 333.642261,33.7619659 330.138261,37.5299659 C329.706261,37.4339659 329.258261,37.3699659 328.794261,37.3699659 C325.434261,37.3699659 322.714261,40.0899659 322.714261,43.4499659 C322.714261,46.8099659 325.434261,49.5299659 328.794261,49.5299659 C332.154261,49.5299659 334.882261,46.8099659 334.882261,43.4499659 C334.882261,43.1939659 334.834261,42.9459659 334.810261,42.6979659 C338.914261,38.3619659 342.026261,33.7779659 344.986261,29.3059659 C346.370261,27.2019659 347.818261,25.0259659 349.354261,22.8739659 C356.090261,13.5299659 366.946261,7.59396591 378.402261,7.00196591 C388.690261,6.46596591 398.986261,10.3379659 406.634261,17.6019659 C414.282261,24.8579659 418.658261,34.9139659 418.658261,45.1939659 C418.658261,56.5379659 413.906261,66.0419659 403.258261,76.0099659 C396.122261,82.6979659 388.498261,93.4339659 388.498261,103.545966 L388.498261,137.777966 C374.730261,140.705966 361.194261,143.769966 349.202261,150.897966 C337.186261,158.041966 326.362261,167.329966 318.258261,178.777966 C308.258261,192.921966 304.362261,210.089966 293.402261,223.761966 C275.402261,246.209966 245.162261,259.417966 220.722261,273.265966 C158.378261,308.617966 94.962261,342.313966 33.122261,378.545966 C13.426261,390.081966 -3.70973898,410.825966 0.698261019,434.985966 C1.67426102,440.313966 4.92226102,438.057966 7.93826102,436.345966 C10.650261,434.801966 13.362261,433.273966 16.082261,431.745966 C23.666261,427.457966 31.266261,423.193966 38.858261,418.913966 L745.146261,418.913966 C752.738261,423.193966 760.346261,427.457966 767.938261,431.745966 C770.650261,433.273966 773.370261,434.801966 776.074261,436.345966 C779.098261,438.057966 782.346261,440.313966 783.314261,434.985966 C787.714261,410.833966 770.586261,390.089966 750.882261,378.553966" id="Shape"></path>
                </g>
                <rect id="Rectangle" x="182" y="378" width="414" height="354" rx="28"></rect>
            </g>
        </g>
    </g>
</svg>