<?xml version="1.0" encoding="UTF-8"?>
<svg width="708px" height="497px" viewBox="0 0 708 497" version="1.1" xmlns="http://www.w3.org/2000/svg" xmlns:xlink="http://www.w3.org/1999/xlink">
    <!-- Generator: Sketch 51.2 (57519) - http://www.bohemiancoding.com/sketch -->
    <title>Group 3</title>
    <desc>Created with Sketch.</desc>
    <defs></defs>
    <g id="Page-1" stroke="none" stroke-width="1" fill="none" fill-rule="evenodd">
        <g id="Desktop-HD" transform="translate(-625.000000, -2650.000000)" fill="#EADEDA" fill-rule="nonzero">
            <g id="Group-3" transform="translate(625.000000, 2650.000000)">
                <g id="noun_Washing-Machine_602612" transform="translate(358.000000, 0.000000)">
                    <path d="M333.96,0.08 L16.04,0.08 C7.203444,0.08 0.04,7.243444 0.04,16.08 L0.04,361.84 C0.04,370.676556 7.203444,377.84 16.04,377.84 L333.96,377.84 C342.796556,377.84 349.96,370.676556 349.96,361.84 L349.96,16.16 C349.981287,11.9026921 348.304979,7.81244715 345.302087,4.79454033 C342.299195,1.77663351 338.217361,0.0799467827 333.96,0.08 Z M15.96,335.56 L15.96,79.16 L333.96,79.16 L333.96,335.56 L15.96,335.56 Z M334.04,16.16 L334.04,71.16 L16.04,71.16 L16.04,16.08 L334.04,16.16 Z M15.96,361.84 L15.96,343.56 L333.96,343.56 L333.96,361.92 L15.96,361.84 Z" id="Shape"></path>
                    <path d="M173.76,97.8 C113.428414,97.8 64.52,146.708414 64.52,207.04 C64.52,267.371586 113.428414,316.28 173.76,316.28 C234.091586,316.28 283,267.371586 283,207.04 C282.933865,146.735829 234.064171,97.8661351 173.76,97.8 Z M173.76,113.8 C203.837693,113.756018 232.086169,128.236425 249.610509,152.681609 C267.134849,177.126794 271.778775,208.528904 262.08,237 C253.321194,233.99692 245.826363,228.1363 240.8,220.36 L237.52,215.72 L234.24,220.36 C226.24,231.88 215.64,238.24 204.72,238.24 C193.8,238.24 183.32,231.88 175.2,220.36 L171.92,215.72 L168.64,220.36 C160.64,231.88 150.04,238.24 139.12,238.24 C128.2,238.24 117.72,231.88 109.6,220.36 L106.32,215.72 L103,220.16 C98.5385159,226.908327 92.2749684,232.271143 84.92,235.64 C75.7531746,207.252925 80.7285232,176.193105 98.3035879,152.089707 C115.878653,127.986309 143.929573,113.752111 173.76,113.8 Z" id="Shape"></path>
                    <path d="M272.84,61.8 C282.339298,61.8 290.04,54.0992977 290.04,44.6 C290.04,35.1007023 282.339298,27.4 272.84,27.4 C263.340702,27.4 255.64,35.1007023 255.64,44.6 C255.661994,54.0901727 263.349827,61.7780065 272.84,61.8 Z M272.84,35.36 C273.877816,35.3723252 274.905914,35.5617117 275.88,35.92 L269.36,42.44 C267.791511,43.997443 267.782557,46.5315113 269.34,48.1 C270.897443,49.6684887 273.431511,49.677443 275,48.12 L281.52,41.6 C281.874585,42.5612438 282.063925,43.5755675 282.08,44.6 C282.08,48.3210527 279.838492,51.6757065 276.400688,53.0996917 C272.962883,54.5236769 269.005799,53.736564 266.374618,51.1053824 C263.743436,48.4742008 262.956323,44.5171168 264.380308,41.0793124 C265.804294,37.641508 269.158947,35.4 272.88,35.4 L272.84,35.36 Z" id="Shape"></path>
                    <path d="M224.8,61.8 C231.756751,61.8 238.028495,57.6093545 240.690728,51.182155 C243.352961,44.7549555 241.881402,37.3569289 236.962237,32.4377634 C232.043071,27.5185978 224.645044,26.0470388 218.217845,28.709272 C211.790645,31.3715052 207.6,37.6432494 207.6,44.6 C207.621994,54.0901727 215.309827,61.7780065 224.8,61.8 Z M224.8,35.36 C229.88102,35.36 234,39.4789803 234,44.56 C234,49.6410197 229.88102,53.76 224.8,53.76 C219.71898,53.76 215.6,49.6410197 215.6,44.56 C215.643732,39.5037109 219.743568,35.4217004 224.8,35.4 L224.8,35.36 Z" id="Shape"></path>
                    <path d="M35,48.68 L60.16,48.68 C62.369139,48.68 64.16,46.889139 64.16,44.68 C64.16,42.470861 62.369139,40.68 60.16,40.68 L35,40.68 C32.790861,40.68 31,42.470861 31,44.68 C31,46.889139 32.790861,48.68 35,48.68 Z" id="Shape"></path>
                </g>
                <g id="laundry-full" transform="translate(0.000000, 259.000000)">
                    <path d="M294.212,237.88 L64.144,237.88 C53.516,237.88 44.828,229.432 44.432,218.896 L24.292,99.948 C24.22,99.516 24.188,99.072 24.188,98.632 C24.188,87.752 33.884,78.904 45.808,78.904 L312.56,78.904 C324.476,78.904 334.168,87.752 334.168,98.632 C334.168,99.072 334.132,99.516 334.064,99.948 L313.932,218.896 C313.532,229.428 304.84,237.88 294.212,237.88 Z M39.968,98.208 L60.056,216.844 C60.132,217.272 60.164,217.72 60.164,218.152 C60.164,220.352 61.944,222.136 64.144,222.136 L294.212,222.136 C296.404,222.136 298.196,220.352 298.196,218.152 C298.196,217.72 298.228,217.272 298.3,216.844 L318.376,98.208 C318.056,96.448 315.756,94.648 312.556,94.648 L45.804,94.648 C42.6,94.648 40.296,96.448 39.968,98.208 Z" id="Shape"></path>
                    <path d="M170.432,92.028 C167.94,92.028 165.724,90.24 165.272,87.7 C164.052,80.888 156.632,46.404 130.192,36.508 C108.792,28.508 99.772,48.576 98.812,50.888 C97.712,53.556 94.648,54.856 91.972,53.76 C87.176,51.8 75.736,53.412 70.668,54.536 C49.116,61.84 51.008,86.068 51.032,86.312 C51.284,89.196 49.148,91.744 46.264,92 C43.396,92.284 40.828,90.124 40.572,87.236 C39.564,75.872 43.92,52.32 67.608,44.488 C67.768,44.432 67.924,44.392 68.084,44.356 C69.668,43.992 81.788,41.336 91.112,42.768 C97.28,31.852 111.712,18.384 133.868,26.676 C165.64,38.564 174.208,78.056 175.604,85.848 C176.116,88.704 174.216,91.428 171.36,91.94 C171.052,92 170.744,92.028 170.432,92.028 Z" id="Shape"></path>
                    <path d="M260.856,44.384 C259.184,44.384 257.54,43.584 256.52,42.1 C256.38,41.892 241.36,20.58 216.108,19.864 C208.328,19.62 196.54,25.708 192.692,28.068 C191.328,28.9 189.652,29.068 188.156,28.524 C186.652,27.98 185.48,26.78 184.968,25.26 C182.944,19.212 178.428,14.928 171.564,12.532 C161.092,8.868 148.352,10.904 142.084,14.964 C131.636,21.744 130.2,27.448 130.188,27.508 C129.74,30.368 127.092,32.244 124.212,31.796 C121.348,31.352 119.404,28.576 119.848,25.712 C120.004,24.704 121.792,15.612 136.372,6.156 C146.264,-0.26 162.524,-1.748 175.024,2.62 C182.784,5.328 188.68,9.992 192.356,16.26 C198.224,13.268 208.04,9.216 216.404,9.368 C247.112,10.248 264.464,35.116 265.184,36.172 C266.816,38.564 266.204,41.836 263.812,43.468 C262.912,44.084 261.88,44.384 260.856,44.384 Z" id="Shape"></path>
                    <path d="M189.94,88.292 C189.148,88.292 188.348,88.112 187.592,87.728 C185,86.428 183.96,83.272 185.256,80.68 C186.56,78.076 198.376,55.02 209.156,49.264 C215.688,45.776 270.252,23.964 293.268,39.164 C314.656,53.3 312.296,81.964 312.184,83.176 C311.924,86.068 309.388,88.184 306.476,87.928 C303.588,87.668 301.468,85.112 301.732,82.224 C301.748,82 303.572,58.564 287.476,47.924 C271.228,37.184 223.88,53.292 214.108,58.524 C208.16,61.696 199.008,76.692 194.632,85.4 C193.716,87.232 191.868,88.292 189.94,88.292 Z" id="Shape"></path>
                    <path d="M32.056,141 L11,141 C5.204,141 0.5,136.3 0.5,130.504 C0.5,124.704 5.2,120.004 11,120.004 L32.056,120.004 C37.852,120.004 42.556,124.7 42.556,130.504 C42.556,136.3 37.852,141 32.056,141 Z" id="Shape"></path>
                    <path d="M347,141 L325.936,141 C320.144,141 315.444,136.3 315.444,130.504 C315.444,124.704 320.144,120.004 325.936,120.004 L347,120.004 C352.796,120.004 357.5,124.7 357.5,130.504 C357.5,136.3 352.796,141 347,141 Z" id="Shape"></path>
                    <path d="M320.908,107.416 L36.156,107.416 C34.704,107.416 33.532,106.24 33.532,104.792 C33.532,103.344 34.704,102.168 36.156,102.168 L320.908,102.168 C322.36,102.168 323.532,103.344 323.532,104.792 C323.532,106.24 322.36,107.416 320.908,107.416 Z" id="Shape"></path>
                    <path d="M65.024,85.664 C63.8,85.664 62.708,84.804 62.456,83.564 C62.264,82.608 57.808,60.06 67.18,47.876 C68.064,46.724 69.708,46.516 70.86,47.396 C72.008,48.28 72.22,49.928 71.336,51.076 C63.412,61.38 67.56,82.308 67.6,82.512 C67.888,83.936 66.972,85.32 65.552,85.608 C65.376,85.648 65.2,85.664 65.024,85.664 Z" id="Shape"></path>
                    <path d="M104.5,85.664 C103.536,85.664 102.616,85.14 102.152,84.224 L95.16,70.384 C94.512,69.104 95.012,67.548 96.28,66.88 L131.82,48.232 C133.104,47.568 134.664,48.044 135.348,49.3 L153.064,81.792 C153.756,83.06 153.292,84.656 152.016,85.352 C150.744,86.052 149.152,85.576 148.452,84.304 L131.976,54.08 L101.008,70.328 L106.84,81.86 C107.496,83.152 106.972,84.732 105.676,85.388 C105.3,85.576 104.9,85.664 104.5,85.664 Z" id="Shape"></path>
                    <path d="M276.528,74.288 C271.332,74.288 267.112,70.064 267.112,64.868 C267.112,59.672 271.336,55.448 276.528,55.448 C281.72,55.448 285.944,59.676 285.944,64.868 C285.944,70.06 281.724,74.288 276.528,74.288 Z M276.528,60.692 C274.228,60.692 272.352,62.564 272.352,64.864 C272.352,67.164 274.228,69.036 276.528,69.036 C278.832,69.036 280.704,67.164 280.704,64.864 C280.704,62.564 278.832,60.692 276.528,60.692 Z" id="Shape"></path>
                    <path d="M225.116,46.612 C224.084,46.612 223.104,46 222.692,44.988 C214.204,24.388 200.228,21.14 199.628,21.012 C198.22,20.708 197.316,19.316 197.612,17.904 C197.908,16.496 199.252,15.58 200.7,15.876 C201.396,16.02 217.932,19.66 227.544,42.992 C228.092,44.332 227.456,45.864 226.116,46.416 C225.788,46.548 225.452,46.612 225.116,46.612 Z" id="Shape"></path>
                    <path d="M210.244,53.176 C209.104,53.176 208.052,52.424 207.724,51.272 C202.768,33.92 190.796,24.412 190.676,24.316 C189.532,23.424 189.332,21.776 190.224,20.636 C191.124,19.488 192.776,19.296 193.908,20.18 C194.46,20.608 207.348,30.852 212.772,49.832 C213.168,51.224 212.356,52.672 210.968,53.072 C210.724,53.144 210.48,53.176 210.244,53.176 Z" id="Shape"></path>
                    <path d="M150.752,41.756 C150.324,41.756 149.892,41.652 149.488,41.432 C148.22,40.732 147.756,39.136 148.46,37.864 C148.916,37.036 159.8,17.488 174.996,6.768 C176.188,5.924 177.824,6.216 178.656,7.4 C179.488,8.584 179.208,10.224 178.024,11.06 C163.804,21.096 153.164,40.212 153.056,40.4 C152.576,41.268 151.68,41.756 150.752,41.756 Z" id="Shape"></path>
                    <path d="M101.324,79.376 C100.376,79.376 99.46,78.864 98.992,77.964 C98.324,76.68 98.82,75.092 100.108,74.42 L135.936,55.74 C137.224,55.068 138.808,55.572 139.476,56.856 C140.144,58.14 139.648,59.724 138.364,60.396 L102.536,79.076 C102.148,79.28 101.728,79.376 101.324,79.376 Z" id="Shape"></path>
                    <path d="M314.46,133.876 L296.088,133.876 L300.916,106.956 C301.172,105.528 300.224,104.164 298.8,103.908 C297.372,103.64 296.008,104.6 295.752,106.028 L290.752,133.876 L265.44,133.876 L259.016,133.876 L258.12,133.876 L261.364,106.8 C261.536,105.364 260.508,104.056 259.064,103.884 C257.652,103.708 256.32,104.736 256.148,106.176 L252.836,133.872 L220.16,133.872 L221.792,106.644 C221.88,105.196 220.78,103.956 219.332,103.864 C217.892,103.8 216.644,104.88 216.56,106.332 L214.916,133.872 L182.216,133.872 L182.216,106.488 C182.22,105.04 181.04,103.86 179.592,103.86 C178.14,103.86 176.972,105.036 176.972,106.488 L176.972,133.872 L144.28,133.872 L142.636,106.332 C142.552,104.884 141.304,103.824 139.86,103.864 C138.412,103.952 137.312,105.196 137.396,106.644 L139.024,133.872 L106.352,133.872 L103.044,106.176 C102.872,104.74 101.54,103.704 100.128,103.884 C98.688,104.056 97.656,105.364 97.828,106.8 L101.064,133.872 L68.436,133.872 L63.44,106.024 C63.184,104.596 61.816,103.636 60.396,103.904 C58.968,104.16 58.016,105.524 58.276,106.952 L63.104,133.872 L43.812,133.872 C42.36,133.872 41.192,135.048 41.192,136.5 C41.192,137.948 42.36,139.12 43.812,139.12 L64.048,139.12 L68.872,166.032 L49.064,166.032 C47.612,166.032 46.444,167.2 46.444,168.644 C46.444,170.1 47.612,171.268 49.064,171.268 L69.816,171.268 L74.344,196.532 L54.532,196.532 C53.08,196.532 51.908,197.7 51.908,199.148 C51.908,200.6 53.08,201.772 54.532,201.772 L75.284,201.772 L79.7,226.404 C79.928,227.676 81.032,228.572 82.28,228.572 C82.436,228.572 82.592,228.556 82.748,228.524 C84.176,228.276 85.128,226.912 84.868,225.48 L80.616,201.768 L109.188,201.768 L112.116,226.252 C112.276,227.592 113.408,228.568 114.716,228.568 C114.82,228.568 114.928,228.56 115.032,228.544 C116.468,228.38 117.5,227.072 117.328,225.628 L114.472,201.768 L143.08,201.768 L144.536,226.096 C144.616,227.492 145.772,228.568 147.152,228.568 C147.204,228.568 147.26,228.56 147.312,228.56 C148.76,228.476 149.864,227.228 149.776,225.784 L148.344,201.768 L176.976,201.768 L176.976,225.94 C176.972,227.388 178.144,228.56 179.596,228.56 C181.048,228.56 182.22,227.388 182.22,225.94 L182.22,201.768 L210.848,201.768 L209.42,225.784 C209.332,227.228 210.432,228.476 211.88,228.56 C211.932,228.56 211.988,228.568 212.044,228.568 C213.416,228.568 214.572,227.488 214.652,226.096 L216.108,201.768 L244.716,201.768 L241.86,225.628 C241.688,227.072 242.716,228.38 244.156,228.544 C244.26,228.56 244.368,228.568 244.472,228.568 C245.776,228.568 246.912,227.592 247.072,226.252 L250,201.768 L251.096,201.768 L278.572,201.768 L274.32,225.48 C274.064,226.908 275.012,228.272 276.44,228.524 C276.592,228.556 276.752,228.572 276.904,228.572 C278.152,228.572 279.256,227.676 279.484,226.404 L283.908,201.772 L303.736,201.772 C305.192,201.772 306.36,200.6 306.36,199.148 C306.36,197.7 305.192,196.532 303.736,196.532 L284.844,196.532 L289.38,171.268 L309.212,171.268 C310.66,171.268 311.828,170.1 311.828,168.644 C311.828,167.2 310.66,166.032 309.212,166.032 L290.32,166.032 L295.148,139.12 L314.46,139.12 C315.912,139.12 317.084,137.948 317.084,136.5 C317.084,135.052 315.916,133.876 314.46,133.876 Z M252.212,139.124 L248.988,166.036 L218.24,166.036 L219.844,139.124 L252.212,139.124 Z M214.592,139.124 L212.98,166.036 L182.216,166.036 L182.216,139.124 L214.592,139.124 Z M176.972,139.124 L176.972,166.036 L146.2,166.036 L144.596,139.124 L176.972,139.124 Z M139.336,139.124 L140.944,166.036 L110.196,166.036 L106.98,139.124 L139.336,139.124 Z M69.372,139.124 L101.692,139.124 L104.908,166.036 L98.612,166.036 L74.2,166.036 L69.372,139.124 Z M79.672,196.54 L75.14,171.276 L98.612,171.276 L105.532,171.276 L108.556,196.54 L79.672,196.54 Z M113.84,196.54 L110.82,171.276 L141.252,171.276 L142.76,196.54 L113.84,196.54 Z M148.02,196.54 L146.512,171.276 L176.968,171.276 L176.968,196.54 L148.02,196.54 Z M182.212,196.54 L182.212,171.276 L212.668,171.276 L211.16,196.54 L182.212,196.54 Z M217.928,171.272 L248.356,171.272 L245.336,196.536 L216.412,196.536 L217.928,171.272 Z M279.512,196.54 L251.096,196.54 L250.628,196.54 L253.648,171.276 L284.048,171.276 L279.512,196.54 Z M284.984,166.036 L254.276,166.036 L257.492,139.124 L259.016,139.124 L265.44,139.124 L289.816,139.124 L284.984,166.036 Z" id="Shape"></path>
                </g>
            </g>
        </g>
    </g>
</svg>