<?xml version="1.0" encoding="UTF-8"?>
<svg width="491px" height="817px" viewBox="0 0 491 817" version="1.1" xmlns="http://www.w3.org/2000/svg" xmlns:xlink="http://www.w3.org/1999/xlink">
    <!-- Generator: Sketch 51.2 (57519) - http://www.bohemiancoding.com/sketch -->
    <title>noun_Outfit_761292</title>
    <desc>Created with Sketch.</desc>
    <defs></defs>
    <g id="Page-1" stroke="none" stroke-width="1" fill="none" fill-rule="evenodd">
        <g id="Desktop-HD" transform="translate(-118.000000, -1553.000000)" fill="#EADEDA" fill-rule="nonzero">
            <g id="noun_Outfit_761292" transform="translate(118.000000, 1553.000000)">
                <path d="M487.994924,88.5547401 C490.99797,91.5565749 491.998985,95.5590214 488.995939,100.56208 L437.944162,212.630581 C436.943147,215.632416 433.940102,217.633639 430.937056,218.634251 C427.93401,218.634251 423.929949,217.633639 421.927919,215.632416 C414.920812,208.628135 393.899492,191.617737 374.880203,185.614067 L386.892386,432.765138 C386.892386,434.766361 385.891371,437.768196 383.88934,439.769419 C381.88731,441.770642 379.885279,442.771254 376.882234,442.771254 L112.614213,442.771254 C110.612183,442.771254 107.609137,441.770642 105.607107,439.769419 C103.605076,437.768196 102.604061,435.766972 102.604061,432.765138 L115.617259,185.614067 C96.5979695,191.617737 75.5766497,208.628135 68.5695431,215.632416 C65.5664975,218.634251 62.5634518,219.634862 59.5604061,218.634251 C56.5573604,217.633639 53.5543147,215.632416 52.5532995,212.630581 L1.50152284,100.56208 C-0.500507614,97.5602446 0.500507614,92.5571865 3.5035533,89.5553517 C87.5888325,11.5076453 170.673096,1.50152905 174.677157,1.50152905 C175.678173,1.50152905 175.678173,1.50152905 175.678173,1.50152905 C176.679188,1.50152905 176.679188,1.50152905 177.680203,1.50152905 C178.681218,1.50152905 179.682234,1.50152905 179.682234,1.50152905 C180.683249,1.50152905 180.683249,2.50214067 181.684264,2.50214067 C181.684264,2.50214067 182.685279,3.50275229 182.685279,3.50275229 C182.685279,4.50336391 183.686294,4.50336391 183.686294,5.50397554 C183.686294,5.50397554 184.68731,5.50397554 184.68731,6.50458716 C185.688325,7.50519878 185.688325,7.50519878 185.688325,8.5058104 C185.688325,8.5058104 185.688325,9.50642202 185.688325,9.50642202 C185.688325,10.5070336 185.688325,10.5070336 185.688325,10.5070336 C185.688325,43.5272171 211.714721,69.5431193 244.748223,69.5431193 C277.781726,69.5431193 303.808122,42.5266055 303.808122,10.5070336 C303.808122,4.50336391 307.812183,0.500917431 313.818274,0.500917431 C313.818274,0.500917431 314.819289,0.500917431 314.819289,0.500917431 C314.819289,0.500917431 315.820305,0.500917431 316.82132,0.500917431 C319.824365,0.500917431 403.909645,9.50642202 487.994924,88.5547401 Z" id="Shape"></path>
                <path d="M394.900508,478.793272 L99.6010152,478.793272 C94.5959391,478.793272 90.5918782,481.795107 89.5908629,486.798165 L30.5309645,791.984709 C29.5299492,794.986544 30.5309645,797.988379 32.5329949,799.989602 C34.5350254,801.990826 36.5370558,803.992049 39.5401015,803.992049 L189.692386,815.999388 C189.692386,815.999388 190.693401,815.999388 190.693401,815.999388 C195.698477,815.999388 199.702538,812.997554 200.703553,808.995107 C214.717766,753.961468 235.739086,690.922936 246.750254,675.913761 C257.761421,690.922936 278.782741,753.961468 292.796954,808.995107 C293.79797,813.998165 298.803046,817 302.807107,815.999388 L452.959391,803.992049 C455.962437,803.992049 457.964467,801.990826 459.966497,799.989602 C461.968528,797.988379 461.968528,794.986544 461.968528,791.984709 L403.909645,486.798165 C402.908629,482.795719 398.904569,478.793272 394.900508,478.793272 Z M406.91269,607.872171 C353.858883,598.866667 342.847716,550.837309 340.845685,531.825688 L392.898477,531.825688 L406.91269,607.872171 Z M385.891371,498.805505 L387.893401,510.812844 L105.607107,510.812844 L107.609137,498.805505 L385.891371,498.805505 Z M101.603046,531.825688 L152.654822,531.825688 C150.652792,550.837309 139.641624,599.867278 86.5878173,607.872171 L101.603046,531.825688 Z M310.815228,795.987156 C308.813198,788.982875 306.811168,781.978593 304.809137,774.974312 L437.944162,765.968807 L441.948223,785.98104 L310.815228,795.987156 Z" id="Shape"></path>
                <ellipse id="Oval" cx="246.750254" cy="558.842202" rx="8.00812183" ry="8.00489297"></ellipse>
                <ellipse id="Oval" cx="246.750254" cy="592.862997" rx="8.00812183" ry="8.00489297"></ellipse>
            </g>
        </g>
    </g>
</svg>